<svg width="10" height="10" viewBox="0 0 10 10" fill="none" xmlns="http://www.w3.org/2000/svg">
<path d="M9.475 1.065C9.33 0.855 9.145 0.67 8.935 0.525C8.46 0.18 7.84 0 7.095 0H2.905C2.805 0 2.705 0.00499999 2.61 0.015C0.97 0.12 0 1.185 0 2.905V7.095C0 7.84 0.18 8.46 0.525 8.935C0.67 9.145 0.855 9.33 1.065 9.475C1.475 9.775 1.995 9.95 2.61 9.99C2.705 9.995 2.805 10 2.905 10H7.095C8.915 10 10 8.915 10 7.095V2.905C10 2.16 9.82 1.54 9.475 1.065ZM8.375 3.45C8.375 3.655 8.205 3.825 8 3.825C7.795 3.825 7.625 3.655 7.625 3.45V2.86C7.625 2.82192 7.6175 2.78421 7.60293 2.74902C7.58835 2.71384 7.56699 2.68187 7.54006 2.65494C7.51313 2.62801 7.48116 2.60665 7.44598 2.59207C7.41079 2.5775 7.37308 2.57 7.335 2.57H5.375V7.43H6.265C6.47 7.43 6.64 7.6 6.64 7.805C6.64 8.01 6.47 8.18 6.265 8.18H3.735C3.53 8.18 3.36 8.01 3.36 7.805C3.36 7.6 3.53 7.43 3.735 7.43H4.625V2.57H2.665C2.62692 2.57 2.58921 2.5775 2.55402 2.59207C2.51884 2.60665 2.48687 2.62801 2.45994 2.65494C2.43301 2.68187 2.41165 2.71384 2.39707 2.74902C2.3825 2.78421 2.375 2.82192 2.375 2.86V3.45C2.375 3.655 2.205 3.825 2 3.825C1.795 3.825 1.625 3.655 1.625 3.45V2.86C1.625 2.285 2.09 1.82 2.665 1.82H7.33C7.905 1.82 8.37 2.285 8.37 2.86V3.45H8.375Z" fill="#334155"/>
</svg>
